<svg xmlns="http://www.w3.org/2000/svg" viewBox="0 0 24 24" fill="none" stroke="currentColor" stroke-width="2" stroke-linecap="round" stroke-linejoin="round"><!-- Webecon by Aditya Divte Production (aka Aditya Diwate) (adityadivte.com) --><path d="M18.5 4a12 12 0 0 0-3.5-1 12 12 0 0 0-.5 1 12 12 0 0 0-5 0 12 12 0 0 0-.5-1 12 12 0 0 0-3.5 1 12 12 0 0 0-2 8c1 2 3.5 3 4.5 3 .5-.5.5-1 1-1.5-1-.5-2-1-3-2.5.5.5 1.5 1 2.5 1.5h6c1-.5 2-1 2.5-1.5-1 1.5-2 2-3 2.5.5.5.5 1 1 1.5 1 0 3.5-1 4.5-3 0-4-1-7-2-8ZM9 12a1 1 0 1 1 0-2 1 1 0 0 1 0 2Zm6 0a1 1 0 1 1 0-2 1 1 0 0 1 0 2Z"/></svg>