<svg xmlns="http://www.w3.org/2000/svg" viewBox="0 0 24 24" fill="none" stroke="currentColor" stroke-width="2" stroke-linecap="round" stroke-linejoin="round"><!-- Webecon by Aditya Divte Production (aka Aditya Diwate) (adityadivte.com) --><path d="M12 12h5v1h-5zM9 10c0-1.7-1.3-3-3-3H2v10h4c1.7 0 3-1.3 3-3v-4Zm-3 3H4v-1h2v1Zm0 3H4v-1h2v1ZM14 7h7M15 10c-1.7 0-3 1.3-3 3s1.3 3 3 3c1 0 2-.5 2.5-1.2l-1-.6c-.3.4-.8.8-1.5.8-1 0-1.8-.7-2-1.5h5c.1-.2.2-.5.2-.8s-1.3-2.7-3.2-2.7Zm1.8 2.2h-3.6c.2-.8.9-1.3 1.8-1.3s1.6.5 1.8 1.3Z" fill="currentColor" stroke="none"/></svg>