<svg xmlns="http://www.w3.org/2000/svg" viewBox="0 0 24 24" fill="none" stroke="currentColor" stroke-width="2" stroke-linecap="round" stroke-linejoin="round"><!-- Webecon by Aditya Divte Production (aka Aditya Diwate) (adityadivte.com) --><path d="M12 8c-1.1 0-2-.9-2-2s.9-2 2-2 2 .9 2 2"/><path d="M12.4 6c.9 1 2.4 1.3 3.6 1.1"/><path d="M16 11c0-1.1-.9-2-2-2s-2 .9-2 2c0 1.1.9 2 2 2 .4 0 .8-.1 1.1-.3"/><path d="M8 11c0-1.1-.9-2-2-2s-2 .9-2 2c0 1.1.9 2 2 2 .4 0 .8-.1 1.1-.3"/><path d="M10 16c0 1.1.9 2 2 2s2-.9 2-2"/><path d="M12 22c5.5 0 10-4.5 10-10s-4.5-10-10-10S2 6.5 2 12s4.5 10 10 10z"/></svg>