<svg xmlns="http://www.w3.org/2000/svg" viewBox="0 0 24 24" fill="none" stroke="currentColor" stroke-width="2" stroke-linecap="round" stroke-linejoin="round"><!-- Webecon by Aditya Divte Production (aka Aditya Diwate) (adityadivte.com) --><path d="M16.182 16.694c1.7 .306 3.818 1.306 3.818 1.306c0 .53 -.5 1 -.5 1c-1.5 0 -5.029 -1 -7.5 -1c-2.471 0 -6 1 -7.5 1c0 0 -.5 -.47 -.5 -1c0 0 2.118 -1 3.818 -1.306c0 0 1.761 -1.989 1.583 -3.181c-.5 -.5 -.8 -1.82 -.8 -1.82s-.986 -.077 -.986 -1.13c0 -.482 .322 -1.41 .772 -1.41c0 0 -.24 -2.573 .654 -4.137c.783 -1.371 1.84 -2.016 2.959 -2.016c1.12 0 2.176 .645 2.96 2.016c.893 1.564 .653 4.137 .653 4.137c.45 0 .772 .928 .772 1.41c0 1.053 -.986 1.13 -.986 1.13s-.3 1.32 -.8 1.82c-.178 1.192 1.583 3.181 1.583 3.181z"/><path d="M10.5 20.5l1.5 .5l1.5 -.5"/></svg>