<svg xmlns="http://www.w3.org/2000/svg" viewBox="0 0 24 24" fill="none" stroke="currentColor" stroke-width="2" stroke-linecap="round" stroke-linejoin="round"><!-- Webecon by Aditya Divte Production (aka Aditya Diwate) (adityadivte.com) --><path d="M21 11.5a8.38 8.38 0 0 1-.9 3.8 8.5 8.5 0 0 1-7.6 4.7 8.38 8.38 0 0 1-3.8-.9L3 21l1.9-5.7a8.38 8.38 0 0 1-.9-3.8 8.5 8.5 0 0 1 4.7-7.6 8.38 8.38 0 0 1 3.8-.9h.5a8.48 8.48 0 0 1 8 8v.5z"/><path d="M16.5 13.5c-.8.8-2 .8-2.8 0l-3.4-3.4c-.8-.8-.8-2 0-2.8.8-.8 2-.8 2.8 0l.6.6c.8.8.8 2 0 2.8l-1.4 1.4c.4.8 1 1.6 1.8 2l1.4-1.4c.8-.8 2-.8 2.8 0l.6.6c.8.8.8 2 0 2.8z"/></svg>